<svg width="32" height="32" viewBox="0 0 32 32" fill="none" xmlns="http://www.w3.org/2000/svg">
<path fill-rule="evenodd" clip-rule="evenodd" d="M23.9748 16C23.9748 20.4183 20.3931 24 15.9748 24C11.8095 24 8.38763 20.8166 8.00953 16.75H5C5.3855 22.4753 10.1518 27 15.9748 27C22.05 27 26.9748 22.0751 26.9748 16C26.9748 9.92487 22.05 5 15.9748 5C11.0311 5 6.84901 8.26138 5.46284 12.75H8.66255C9.90833 9.95128 12.7137 8 15.9748 8C20.3931 8 23.9748 11.5817 23.9748 16Z" fill="white"/>
<path fill-rule="evenodd" clip-rule="evenodd" d="M15.9749 19.75H5.72485V16.75H15.9749V19.75Z" fill="white"/>
</svg>
